<?xml version="1.0" standalone="no"?>
<!DOCTYPE svg PUBLIC "-//W3C//DTD SVG 20010904//EN"
 "http://www.w3.org/TR/2001/REC-SVG-20010904/DTD/svg10.dtd">
<svg version="1.0" xmlns="http://www.w3.org/2000/svg"
 width="200.000000pt" height="200.000000pt" viewBox="0 0 200.000000 200.000000"
 preserveAspectRatio="xMidYMid meet">
<metadata>
Created by potrace 1.16, written by Peter Selinger 2001-2019
</metadata>
<g transform="translate(0.000000,200.000000) scale(0.100000,-0.100000)"
fill="#000000" stroke="none">
<path d="M440 1683 c0 -4 58 -64 130 -133 l131 -125 -37 -105 c-33 -96 -37
-115 -38 -217 l-1 -113 -35 0 c-49 0 -102 -16 -142 -44 l-35 -23 -36 33 c-41
38 -76 43 -100 17 -29 -34 -24 -55 21 -90 24 -18 52 -33 62 -33 11 0 32 16 47
36 32 41 82 70 138 79 22 3 50 8 62 11 17 3 26 -5 45 -42 48 -97 125 -136 284
-142 195 -8 342 36 428 128 l45 48 86 -44 c48 -24 102 -57 121 -74 67 -59 81
-64 109 -46 39 26 50 54 29 77 -21 24 -80 25 -105 3 -17 -15 -21 -15 -46 2
-16 10 -62 35 -103 56 l-75 37 3 113 c2 77 -1 125 -10 151 l-14 38 139 142
c83 84 134 143 127 145 -8 3 -31 -15 -53 -39 -124 -136 -223 -230 -230 -218
-70 112 -77 119 -201 180 -96 47 -129 59 -166 58 l-45 -1 50 -12 c63 -15 231
-96 272 -130 16 -14 50 -64 74 -112 42 -83 44 -91 43 -173 0 -68 -5 -95 -22
-127 -64 -123 -202 -184 -418 -184 -68 0 -129 6 -160 15 -67 20 -126 72 -154
137 -33 77 -25 217 19 346 49 142 78 192 136 231 l50 33 103 -5 c57 -3 102 -1
102 4 0 5 -50 9 -112 9 -101 0 -115 -2 -155 -26 -24 -14 -55 -43 -69 -66 l-26
-40 -41 39 c-23 21 -77 73 -120 113 -80 77 -107 97 -107 83z"/>
</g>
</svg>
