<?xml version="1.0" standalone="no"?>
<!DOCTYPE svg PUBLIC "-//W3C//DTD SVG 20010904//EN"
 "http://www.w3.org/TR/2001/REC-SVG-20010904/DTD/svg10.dtd">
<svg version="1.0" xmlns="http://www.w3.org/2000/svg"
 width="200.000000pt" height="200.000000pt" viewBox="0 0 200.000000 200.000000"
 preserveAspectRatio="xMidYMid meet">
<metadata>
Created by potrace 1.16, written by Peter Selinger 2001-2019
</metadata>
<g transform="translate(0.000000,200.000000) scale(0.100000,-0.100000)"
fill="#000000" stroke="none">
<path d="M440 1683 c0 -4 58 -64 130 -133 l131 -125 -35 -102 c-29 -81 -37
-123 -43 -207 l-6 -105 -40 20 c-22 12 -64 23 -93 26 -48 5 -55 9 -60 32 -11
50 -17 66 -26 79 -14 17 -73 15 -88 -3 -13 -16 -6 -63 17 -109 14 -27 17 -28
61 -21 82 13 122 8 180 -22 43 -21 61 -39 81 -75 36 -65 56 -84 119 -115 47
-23 71 -27 167 -31 193 -8 327 31 422 120 l52 50 98 -5 c54 -3 129 -13 166
-22 62 -17 70 -17 84 -2 8 8 16 33 17 54 1 33 -2 38 -22 41 -33 5 -78 -16 -89
-41 -9 -20 -16 -21 -114 -18 -133 3 -141 5 -129 37 14 35 11 202 -4 242 l-12
34 139 141 c83 84 134 143 127 145 -8 3 -31 -15 -53 -39 -124 -136 -223 -230
-230 -218 -70 112 -77 119 -201 180 -96 47 -129 59 -166 58 l-45 -1 50 -12
c63 -15 231 -96 272 -130 16 -14 50 -64 74 -112 42 -83 44 -91 43 -173 0 -68
-5 -95 -22 -127 -64 -123 -202 -184 -418 -184 -68 0 -129 6 -160 15 -67 20
-126 72 -154 137 -33 77 -25 217 19 346 49 142 78 192 136 231 l50 33 103 -5
c57 -3 102 -1 102 4 0 5 -50 9 -112 9 -101 0 -115 -2 -155 -26 -24 -14 -55
-43 -69 -66 l-26 -40 -41 39 c-23 21 -77 73 -120 113 -80 77 -107 97 -107 83z"/>
</g>
</svg>
