<?xml version="1.0" standalone="no"?>
<!DOCTYPE svg PUBLIC "-//W3C//DTD SVG 20010904//EN"
 "http://www.w3.org/TR/2001/REC-SVG-20010904/DTD/svg10.dtd">
<svg version="1.0" xmlns="http://www.w3.org/2000/svg"
 width="200.000000pt" height="200.000000pt" viewBox="0 0 200.000000 200.000000"
 preserveAspectRatio="xMidYMid meet">
<metadata>
Created by potrace 1.16, written by Peter Selinger 2001-2019
</metadata>
<g transform="translate(0.000000,200.000000) scale(0.100000,-0.100000)"
fill="#000000" stroke="none">
<path d="M440 1683 c0 -4 58 -64 130 -133 l131 -125 -37 -105 c-34 -97 -37
-114 -38 -220 -1 -101 2 -120 22 -158 12 -23 22 -44 22 -47 0 -2 -24 -15 -54
-28 -29 -14 -66 -40 -81 -60 l-28 -35 -51 24 c-44 20 -53 22 -71 10 -28 -19
-42 -61 -26 -80 7 -8 33 -22 58 -30 41 -14 49 -14 69 -1 12 8 25 28 29 44 8
36 64 89 123 115 42 19 45 19 70 2 74 -48 116 -60 228 -64 131 -5 248 15 332
56 l55 27 77 -75 c42 -41 94 -101 114 -132 42 -66 67 -74 113 -34 23 20 26 28
17 43 -6 10 -23 25 -37 33 -22 12 -32 13 -59 2 -28 -10 -34 -10 -42 5 -5 9
-45 51 -90 94 l-81 78 31 33 c51 55 64 95 63 200 0 51 -6 108 -13 126 l-12 34
139 141 c83 84 134 143 127 145 -8 3 -31 -15 -53 -39 -124 -136 -223 -230
-230 -218 -70 112 -77 119 -201 180 -96 47 -129 59 -166 58 l-45 -1 50 -12
c63 -15 231 -96 272 -130 16 -14 50 -64 74 -112 42 -83 44 -91 43 -173 0 -68
-5 -95 -22 -127 -64 -123 -202 -184 -418 -184 -68 0 -129 6 -160 15 -67 20
-126 72 -154 137 -33 77 -25 217 19 346 49 142 78 192 136 231 l50 33 103 -5
c57 -3 102 -1 102 4 0 5 -50 9 -112 9 -101 0 -115 -2 -155 -26 -24 -14 -55
-43 -69 -66 l-26 -40 -41 39 c-23 21 -77 73 -120 113 -80 77 -107 97 -107 83z"/>
</g>
</svg>
