<?xml version="1.0" standalone="no"?>
<!DOCTYPE svg PUBLIC "-//W3C//DTD SVG 20010904//EN"
 "http://www.w3.org/TR/2001/REC-SVG-20010904/DTD/svg10.dtd">
<svg version="1.0" xmlns="http://www.w3.org/2000/svg"
 width="200.000000pt" height="200.000000pt" viewBox="0 0 200.000000 200.000000"
 preserveAspectRatio="xMidYMid meet">
<metadata>
Created by potrace 1.16, written by Peter Selinger 2001-2019
</metadata>
<g transform="translate(0.000000,200.000000) scale(0.100000,-0.100000)"
fill="#000000" stroke="none">
<path d="M440 1683 c0 -4 58 -64 130 -133 l131 -125 -37 -105 c-34 -97 -37
-114 -38 -220 -1 -103 2 -120 23 -162 14 -26 35 -57 47 -69 l23 -21 -39 -50
c-22 -27 -45 -67 -51 -89 l-12 -39 -58 0 c-63 0 -79 -13 -79 -64 0 -34 32 -50
86 -43 61 6 74 20 74 77 0 59 18 103 62 154 l34 39 50 -19 c40 -16 75 -19 189
-19 140 1 198 10 285 48 l36 15 46 -101 c25 -56 49 -127 53 -157 8 -62 27 -90
62 -90 61 0 84 50 41 90 -21 20 -36 24 -70 21 -11 -1 -19 9 -23 30 -4 18 -25
68 -46 113 -22 44 -39 87 -39 96 0 9 16 32 36 51 57 55 74 103 73 211 0 51 -6
108 -13 126 l-12 34 139 141 c83 84 134 143 127 145 -8 3 -31 -15 -53 -39
-124 -136 -223 -230 -230 -218 -70 112 -77 119 -201 180 -96 47 -129 59 -166
58 l-45 -1 50 -12 c63 -15 231 -96 272 -130 16 -14 50 -64 74 -112 42 -83 44
-91 43 -173 0 -68 -5 -95 -22 -127 -64 -123 -202 -184 -418 -184 -68 0 -129 6
-160 15 -67 20 -126 72 -154 137 -33 77 -25 217 19 346 49 142 78 192 136 231
l50 33 103 -5 c57 -3 102 -1 102 4 0 5 -50 9 -112 9 -101 0 -115 -2 -155 -26
-24 -14 -55 -43 -69 -66 l-26 -40 -41 39 c-23 21 -77 73 -120 113 -80 77 -107
97 -107 83z"/>
</g>
</svg>
